ffmpeg version n8.0.1 Copyright (c) 2000-2025 the FFmpeg developers
  built with gcc 15.2.1 (GCC) 20260103
  configuration: --prefix=/usr --disable-debug --disable-static --disable-stripping --enable-amf --enable-avisynth --enable-cuda-llvm --enable-lto --enable-fontconfig --enable-frei0r --enable-gmp --enable-gnutls --enable-gpl --enable-ladspa --enable-libaom --enable-libass --enable-libbluray --enable-libbs2b --enable-libdav1d --enable-libdrm --enable-libdvdnav --enable-libdvdread --enable-libfreetype --enable-libfribidi --enable-libglslang --enable-libgsm --enable-libharfbuzz --enable-libiec61883 --enable-libjack --enable-libjxl --enable-libmodplug --enable-libmp3lame --enable-libopencore_amrnb --enable-libopencore_amrwb --enable-libopenjpeg --enable-libopenmpt --enable-libopus --enable-libplacebo --enable-libpulse --enable-librav1e --enable-librsvg --enable-librubberband --enable-libsnappy --enable-libsoxr --enable-libspeex --enable-libsrt --enable-libssh --enable-libsvtav1 --enable-libtheora --enable-libv4l2 --enable-libvidstab --enable-libvmaf --enable-libvorbis --enable-libvpl --enable-libvpx --enable-libwebp --enable-libx264 --enable-libx265 --enable-libxcb --enable-libxml2 --enable-libxvid --enable-libzimg --enable-libzmq --enable-nvdec --enable-nvenc --enable-opencl --enable-opengl --enable-shared --enable-vapoursynth --enable-version3 --enable-vulkan
  libavutil      60.  8.100 / 60.  8.100
  libavcodec     62. 11.100 / 62. 11.100
  libavformat    62.  3.100 / 62.  3.100
  libavdevice    62.  1.100 / 62.  1.100
  libavfilter    11.  4.100 / 11.  4.100
  libswscale      9.  1.100 /  9.  1.100
  libswresample   6.  1.100 /  6.  1.100
[video4linux2,v4l2 @ 0x55e0ed2dd440] The driver changed the time per frame from 1/30 to 1/10
Input #0, video4linux2,v4l2, from '/dev/video0':
  Duration: N/A, start: 2908.506082, bitrate: 147456 kb/s
  Stream #0:0: Video: rawvideo (YUY2 / 0x32595559), yuyv422, 1280x720, 147456 kb/s, 10 fps, 10 tbr, 1000k tbn, start 2908.506082
Stream mapping:
  Stream #0:0 -> #0:0 (rawvideo (native) -> h264 (libx264))
Press [q] to stop, [?] for help
[libx264 @ 0x55e0ed2e25c0] using cpu capabilities: MMX2 SSE2Fast SSSE3 SSE4.2 AVX FMA3 BMI2 AVX2 AVX512
[libx264 @ 0x55e0ed2e25c0] profile High, level 3.1, 4:2:0, 8-bit
[libx264 @ 0x55e0ed2e25c0] 264 - core 165 r3222 b35605a - H.264/MPEG-4 AVC codec - Copyleft 2003-2025 - http://www.videolan.org/x264.html - options: cabac=1 ref=1 deblock=1:0:0 analyse=0x3:0x113 me=hex subme=2 psy=1 psy_rd=1.00:0.00 mixed_ref=0 me_range=16 chroma_me=1 trellis=0 8x8dct=1 cqm=0 deadzone=21,11 fast_pskip=1 chroma_qp_offset=0 threads=11 lookahead_threads=11 sliced_threads=1 slices=11 nr=0 decimate=1 interlaced=0 bluray_compat=0 constrained_intra=0 bframes=0 weightp=1 keyint=30 keyint_min=3 scenecut=0 intra_refresh=0 rc=crf mbtree=0 crf=23.0 qcomp=0.60 qpmin=0 qpmax=69 qpstep=4 ip_ratio=1.40 aq=1:1.00
Output #0, hls, to '/home/nian/Downloads/files/hls/stream.m3u8':
  Metadata:
    encoder         : Lavf62.3.100
  Stream #0:0: Video: h264, yuv420p(tv, progressive), 1280x720, q=2-31, 10 fps, 90k tbn
    Metadata:
      encoder         : Lavc62.11.100 libx264
    Side data:
      cpb: bitrate max/min/avg: 0/0/0 buffer size: 0 vbv_delay: N/A
frame=    7 fps=0.0 q=23.0 size=N/A time=00:00:00.70 bitrate=N/A dup=1 drop=0 speed= 1.4x elapsed=0:00:00.50    frame=   12 fps= 12 q=23.0 size=N/A time=00:00:01.20 bitrate=N/A dup=1 drop=0 speed= 1.2x elapsed=0:00:01.00    frame=   17 fps= 11 q=23.0 size=N/A time=00:00:01.70 bitrate=N/A dup=1 drop=0 speed=1.13x elapsed=0:00:01.50    frame=   22 fps= 11 q=23.0 size=N/A time=00:00:02.20 bitrate=N/A dup=1 drop=0 speed= 1.1x elapsed=0:00:02.00    frame=   27 fps= 11 q=23.0 size=N/A time=00:00:02.70 bitrate=N/A dup=1 drop=0 speed=1.08x elapsed=0:00:02.50    [hls @ 0x55e0ed2dfac0] Opening '/home/nian/Downloads/files/hls/segment_000.ts' for writing
[hls @ 0x55e0ed2dfac0] Opening '/home/nian/Downloads/files/hls/stream.m3u8.tmp' for writing
frame=   32 fps= 11 q=23.0 size=N/A time=00:00:03.20 bitrate=N/A dup=1 drop=0 speed=1.07x elapsed=0:00:03.00    frame=   37 fps= 11 q=23.0 size=N/A time=00:00:03.70 bitrate=N/A dup=1 drop=0 speed=1.06x elapsed=0:00:03.50    frame=   42 fps= 10 q=23.0 size=N/A time=00:00:04.20 bitrate=N/A dup=1 drop=0 speed=1.05x elapsed=0:00:04.00    frame=   47 fps= 10 q=23.0 size=N/A time=00:00:04.70 bitrate=N/A dup=1 drop=0 speed=1.04x elapsed=0:00:04.50    frame=   52 fps= 10 q=23.0 size=N/A time=00:00:05.20 bitrate=N/A dup=1 drop=0 speed=1.04x elapsed=0:00:05.00    frame=   57 fps= 10 q=23.0 size=N/A time=00:00:05.70 bitrate=N/A dup=1 drop=0 speed=1.04x elapsed=0:00:05.50    [hls @ 0x55e0ed2dfac0] Opening '/home/nian/Downloads/files/hls/segment_001.ts' for writing
[hls @ 0x55e0ed2dfac0] Opening '/home/nian/Downloads/files/hls/stream.m3u8.tmp' for writing
frame=   62 fps= 10 q=23.0 size=N/A time=00:00:06.20 bitrate=N/A dup=1 drop=0 speed=1.03x elapsed=0:00:06.00    frame=   67 fps= 10 q=23.0 size=N/A time=00:00:06.70 bitrate=N/A dup=1 drop=0 speed=1.03x elapsed=0:00:06.50    frame=   73 fps= 10 q=23.0 size=N/A time=00:00:07.30 bitrate=N/A dup=1 drop=0 speed=1.04x elapsed=0:00:07.00    frame=   78 fps= 10 q=23.0 size=N/A time=00:00:07.80 bitrate=N/A dup=1 drop=0 speed=1.04x elapsed=0:00:07.50    frame=   83 fps= 10 q=23.0 size=N/A time=00:00:08.30 bitrate=N/A dup=1 drop=0 speed=1.04x elapsed=0:00:08.00    frame=   88 fps= 10 q=23.0 size=N/A time=00:00:08.80 bitrate=N/A dup=1 drop=0 speed=1.04x elapsed=0:00:08.50    [hls @ 0x55e0ed2dfac0] Opening '/home/nian/Downloads/files/hls/segment_002.ts' for writing
[hls @ 0x55e0ed2dfac0] Opening '/home/nian/Downloads/files/hls/stream.m3u8.tmp' for writing
frame=   93 fps= 10 q=23.0 size=N/A time=00:00:09.30 bitrate=N/A dup=1 drop=0 speed=1.03x elapsed=0:00:09.00    frame=   98 fps= 10 q=23.0 size=N/A time=00:00:09.80 bitrate=N/A dup=1 drop=0 speed=1.03x elapsed=0:00:09.50    frame=  103 fps= 10 q=23.0 size=N/A time=00:00:10.30 bitrate=N/A dup=1 drop=0 speed=1.03x elapsed=0:00:10.00    frame=  108 fps= 10 q=23.0 size=N/A time=00:00:10.80 bitrate=N/A dup=1 drop=0 speed=1.03x elapsed=0:00:10.50    frame=  113 fps= 10 q=23.0 size=N/A time=00:00:11.30 bitrate=N/A dup=1 drop=0 speed=1.03x elapsed=0:00:11.00    frame=  118 fps= 10 q=23.0 size=N/A time=00:00:11.80 bitrate=N/A dup=1 drop=0 speed=1.03x elapsed=0:00:11.50    [hls @ 0x55e0ed2dfac0] Opening '/home/nian/Downloads/files/hls/segment_003.ts' for writing
[hls @ 0x55e0ed2dfac0] Opening '/home/nian/Downloads/files/hls/stream.m3u8.tmp' for writing
frame=  123 fps= 10 q=23.0 size=N/A time=00:00:12.30 bitrate=N/A dup=1 drop=0 speed=1.02x elapsed=0:00:12.00    frame=  128 fps= 10 q=23.0 size=N/A time=00:00:12.80 bitrate=N/A dup=1 drop=0 speed=1.02x elapsed=0:00:12.50    frame=  134 fps= 10 q=23.0 size=N/A time=00:00:13.40 bitrate=N/A dup=1 drop=0 speed=1.03x elapsed=0:00:13.00    frame=  138 fps= 10 q=23.0 size=N/A time=00:00:13.80 bitrate=N/A dup=1 drop=1 speed=1.02x elapsed=0:00:13.50    frame=  143 fps= 10 q=23.0 size=N/A time=00:00:14.30 bitrate=N/A dup=1 drop=1 speed=1.02x elapsed=0:00:14.00    frame=  148 fps= 10 q=23.0 size=N/A time=00:00:14.80 bitrate=N/A dup=1 drop=1 speed=1.02x elapsed=0:00:14.50    [hls @ 0x55e0ed2dfac0] Opening '/home/nian/Downloads/files/hls/segment_004.ts' for writing
[hls @ 0x55e0ed2dfac0] Opening '/home/nian/Downloads/files/hls/stream.m3u8.tmp' for writing
frame=  153 fps= 10 q=23.0 size=N/A time=00:00:15.30 bitrate=N/A dup=1 drop=1 speed=1.02x elapsed=0:00:15.00    frame=  158 fps= 10 q=23.0 size=N/A time=00:00:15.80 bitrate=N/A dup=1 drop=1 speed=1.02x elapsed=0:00:15.50    frame=  163 fps= 10 q=23.0 size=N/A time=00:00:16.30 bitrate=N/A dup=1 drop=1 speed=1.02x elapsed=0:00:16.00    frame=  168 fps= 10 q=23.0 size=N/A time=00:00:16.80 bitrate=N/A dup=1 drop=1 speed=1.02x elapsed=0:00:16.50    frame=  173 fps= 10 q=23.0 size=N/A time=00:00:17.30 bitrate=N/A dup=1 drop=1 speed=1.02x elapsed=0:00:17.00    frame=  178 fps= 10 q=23.0 size=N/A time=00:00:17.80 bitrate=N/A dup=1 drop=1 speed=1.02x elapsed=0:00:17.50    [hls @ 0x55e0ed2dfac0] Opening '/home/nian/Downloads/files/hls/segment_005.ts' for writing
[hls @ 0x55e0ed2dfac0] Opening '/home/nian/Downloads/files/hls/stream.m3u8.tmp' for writing
frame=  183 fps= 10 q=23.0 size=N/A time=00:00:18.30 bitrate=N/A dup=1 drop=1 speed=1.02x elapsed=0:00:18.00    frame=  188 fps= 10 q=23.0 size=N/A time=00:00:18.80 bitrate=N/A dup=1 drop=1 speed=1.02x elapsed=0:00:18.50    frame=  193 fps= 10 q=23.0 size=N/A time=00:00:19.30 bitrate=N/A dup=1 drop=1 speed=1.02x elapsed=0:00:19.00    frame=  198 fps= 10 q=23.0 size=N/A time=00:00:19.80 bitrate=N/A dup=1 drop=1 speed=1.02x elapsed=0:00:19.50    frame=  203 fps= 10 q=23.0 size=N/A time=00:00:20.30 bitrate=N/A dup=1 drop=2 speed=1.01x elapsed=0:00:20.00    frame=  208 fps= 10 q=23.0 size=N/A time=00:00:20.80 bitrate=N/A dup=1 drop=2 speed=1.01x elapsed=0:00:20.50    [hls @ 0x55e0ed2dfac0] Opening '/home/nian/Downloads/files/hls/segment_006.ts' for writing
[hls @ 0x55e0ed2dfac0] Opening '/home/nian/Downloads/files/hls/stream.m3u8.tmp' for writing
frame=  213 fps= 10 q=23.0 size=N/A time=00:00:21.30 bitrate=N/A dup=1 drop=2 speed=1.01x elapsed=0:00:21.00    frame=  218 fps= 10 q=23.0 size=N/A time=00:00:21.80 bitrate=N/A dup=1 drop=2 speed=1.01x elapsed=0:00:21.50    frame=  223 fps= 10 q=23.0 size=N/A time=00:00:22.30 bitrate=N/A dup=1 drop=2 speed=1.01x elapsed=0:00:22.00    frame=  228 fps= 10 q=23.0 size=N/A time=00:00:22.80 bitrate=N/A dup=1 drop=2 speed=1.01x elapsed=0:00:22.50    frame=  233 fps= 10 q=23.0 size=N/A time=00:00:23.30 bitrate=N/A dup=1 drop=2 speed=1.01x elapsed=0:00:23.00    frame=  238 fps= 10 q=23.0 size=N/A time=00:00:23.80 bitrate=N/A dup=1 drop=2 speed=1.01x elapsed=0:00:23.50    [hls @ 0x55e0ed2dfac0] Opening '/home/nian/Downloads/files/hls/segment_007.ts' for writing
[hls @ 0x55e0ed2dfac0] Opening '/home/nian/Downloads/files/hls/stream.m3u8.tmp' for writing
frame=  243 fps= 10 q=23.0 size=N/A time=00:00:24.30 bitrate=N/A dup=1 drop=2 speed=1.01x elapsed=0:00:24.00    frame=  248 fps= 10 q=23.0 size=N/A time=00:00:24.80 bitrate=N/A dup=1 drop=2 speed=1.01x elapsed=0:00:24.50    frame=  253 fps= 10 q=23.0 size=N/A time=00:00:25.30 bitrate=N/A dup=1 drop=2 speed=1.01x elapsed=0:00:25.00    frame=  258 fps= 10 q=23.0 size=N/A time=00:00:25.80 bitrate=N/A dup=1 drop=2 speed=1.01x elapsed=0:00:25.50    frame=  264 fps= 10 q=23.0 size=N/A time=00:00:26.40 bitrate=N/A dup=1 drop=2 speed=1.02x elapsed=0:00:26.00    frame=  268 fps= 10 q=23.0 size=N/A time=00:00:26.80 bitrate=N/A dup=1 drop=3 speed=1.01x elapsed=0:00:26.50    [hls @ 0x55e0ed2dfac0] Opening '/home/nian/Downloads/files/hls/segment_008.ts' for writing
[hls @ 0x55e0ed2dfac0] Opening '/home/nian/Downloads/files/hls/stream.m3u8.tmp' for writing
frame=  273 fps= 10 q=23.0 size=N/A time=00:00:27.30 bitrate=N/A dup=1 drop=3 speed=1.01x elapsed=0:00:27.00    frame=  278 fps= 10 q=23.0 size=N/A time=00:00:27.80 bitrate=N/A dup=1 drop=3 speed=1.01x elapsed=0:00:27.50    frame=  283 fps= 10 q=23.0 size=N/A time=00:00:28.30 bitrate=N/A dup=1 drop=3 speed=1.01x elapsed=0:00:28.00    frame=  288 fps= 10 q=23.0 size=N/A time=00:00:28.80 bitrate=N/A dup=1 drop=3 speed=1.01x elapsed=0:00:28.50    frame=  293 fps= 10 q=23.0 size=N/A time=00:00:29.30 bitrate=N/A dup=1 drop=3 speed=1.01x elapsed=0:00:29.00    frame=  298 fps= 10 q=23.0 size=N/A time=00:00:29.80 bitrate=N/A dup=1 drop=3 speed=1.01x elapsed=0:00:29.50    [hls @ 0x55e0ed2dfac0] Opening '/home/nian/Downloads/files/hls/segment_009.ts' for writing
[hls @ 0x55e0ed2dfac0] Opening '/home/nian/Downloads/files/hls/stream.m3u8.tmp' for writing
frame=  303 fps= 10 q=23.0 size=N/A time=00:00:30.30 bitrate=N/A dup=1 drop=3 speed=1.01x elapsed=0:00:30.00    frame=  308 fps= 10 q=23.0 size=N/A time=00:00:30.80 bitrate=N/A dup=1 drop=3 speed=1.01x elapsed=0:00:30.50    frame=  313 fps= 10 q=23.0 size=N/A time=00:00:31.30 bitrate=N/A dup=1 drop=3 speed=1.01x elapsed=0:00:31.00    frame=  318 fps= 10 q=23.0 size=N/A time=00:00:31.80 bitrate=N/A dup=1 drop=3 speed=1.01x elapsed=0:00:31.50    frame=  323 fps= 10 q=23.0 size=N/A time=00:00:32.30 bitrate=N/A dup=1 drop=3 speed=1.01x elapsed=0:00:32.00    frame=  328 fps= 10 q=23.0 size=N/A time=00:00:32.80 bitrate=N/A dup=1 drop=3 speed=1.01x elapsed=0:00:32.50    [hls @ 0x55e0ed2dfac0] Opening '/home/nian/Downloads/files/hls/segment_010.ts' for writing
[hls @ 0x55e0ed2dfac0] Opening '/home/nian/Downloads/files/hls/stream.m3u8.tmp' for writing
frame=  333 fps= 10 q=23.0 size=N/A time=00:00:33.30 bitrate=N/A dup=1 drop=4 speed=1.01x elapsed=0:00:33.00    frame=  338 fps= 10 q=23.0 size=N/A time=00:00:33.80 bitrate=N/A dup=1 drop=4 speed=1.01x elapsed=0:00:33.50    frame=  343 fps= 10 q=23.0 size=N/A time=00:00:34.30 bitrate=N/A dup=1 drop=4 speed=1.01x elapsed=0:00:34.00    frame=  348 fps= 10 q=23.0 size=N/A time=00:00:34.80 bitrate=N/A dup=1 drop=4 speed=1.01x elapsed=0:00:34.50    frame=  353 fps= 10 q=23.0 size=N/A time=00:00:35.30 bitrate=N/A dup=1 drop=4 speed=1.01x elapsed=0:00:35.00    frame=  358 fps= 10 q=23.0 size=N/A time=00:00:35.80 bitrate=N/A dup=1 drop=4 speed=1.01x elapsed=0:00:35.50    [hls @ 0x55e0ed2dfac0] Opening '/home/nian/Downloads/files/hls/segment_011.ts' for writing
[hls @ 0x55e0ed2dfac0] Opening '/home/nian/Downloads/files/hls/stream.m3u8.tmp' for writing
frame=  363 fps= 10 q=23.0 size=N/A time=00:00:36.30 bitrate=N/A dup=1 drop=4 speed=1.01x elapsed=0:00:36.00    frame=  368 fps= 10 q=23.0 size=N/A time=00:00:36.80 bitrate=N/A dup=1 drop=4 speed=1.01x elapsed=0:00:36.50    frame=  373 fps= 10 q=23.0 size=N/A time=00:00:37.30 bitrate=N/A dup=1 drop=4 speed=1.01x elapsed=0:00:37.00    frame=  378 fps= 10 q=23.0 size=N/A time=00:00:37.80 bitrate=N/A dup=1 drop=4 speed=1.01x elapsed=0:00:37.50    frame=  383 fps= 10 q=23.0 size=N/A time=00:00:38.30 bitrate=N/A dup=1 drop=4 speed=1.01x elapsed=0:00:38.00    frame=  389 fps= 10 q=23.0 size=N/A time=00:00:38.90 bitrate=N/A dup=1 drop=4 speed=1.01x elapsed=0:00:38.50    [hls @ 0x55e0ed2dfac0] Opening '/home/nian/Downloads/files/hls/segment_012.ts' for writing
[hls @ 0x55e0ed2dfac0] Opening '/home/nian/Downloads/files/hls/stream.m3u8.tmp' for writing
frame=  393 fps= 10 q=23.0 size=N/A time=00:00:39.30 bitrate=N/A dup=1 drop=5 speed=1.01x elapsed=0:00:39.00    frame=  398 fps= 10 q=23.0 size=N/A time=00:00:39.80 bitrate=N/A dup=1 drop=5 speed=1.01x elapsed=0:00:39.50    frame=  403 fps= 10 q=23.0 size=N/A time=00:00:40.30 bitrate=N/A dup=1 drop=5 speed=1.01x elapsed=0:00:40.00    frame=  408 fps= 10 q=23.0 size=N/A time=00:00:40.80 bitrate=N/A dup=1 drop=5 speed=1.01x elapsed=0:00:40.50    frame=  413 fps= 10 q=23.0 size=N/A time=00:00:41.30 bitrate=N/A dup=1 drop=5 speed=1.01x elapsed=0:00:41.00    frame=  418 fps= 10 q=23.0 size=N/A time=00:00:41.80 bitrate=N/A dup=1 drop=5 speed=1.01x elapsed=0:00:41.50    [hls @ 0x55e0ed2dfac0] Opening '/home/nian/Downloads/files/hls/segment_013.ts' for writing
[hls @ 0x55e0ed2dfac0] Opening '/home/nian/Downloads/files/hls/stream.m3u8.tmp' for writing
frame=  423 fps= 10 q=23.0 size=N/A time=00:00:42.30 bitrate=N/A dup=1 drop=5 speed=1.01x elapsed=0:00:42.01    frame=  428 fps= 10 q=23.0 size=N/A time=00:00:42.80 bitrate=N/A dup=1 drop=5 speed=1.01x elapsed=0:00:42.51    frame=  433 fps= 10 q=23.0 size=N/A time=00:00:43.30 bitrate=N/A dup=1 drop=5 speed=1.01x elapsed=0:00:43.01    frame=  438 fps= 10 q=23.0 size=N/A time=00:00:43.80 bitrate=N/A dup=1 drop=5 speed=1.01x elapsed=0:00:43.51    frame=  443 fps= 10 q=23.0 size=N/A time=00:00:44.30 bitrate=N/A dup=1 drop=5 speed=1.01x elapsed=0:00:44.01    frame=  448 fps= 10 q=23.0 size=N/A time=00:00:44.80 bitrate=N/A dup=1 drop=5 speed=1.01x elapsed=0:00:44.51    [hls @ 0x55e0ed2dfac0] Opening '/home/nian/Downloads/files/hls/segment_014.ts' for writing
[hls @ 0x55e0ed2dfac0] Opening '/home/nian/Downloads/files/hls/stream.m3u8.tmp' for writing
frame=  454 fps= 10 q=23.0 size=N/A time=00:00:45.40 bitrate=N/A dup=1 drop=5 speed=1.01x elapsed=0:00:45.01    frame=  458 fps= 10 q=23.0 size=N/A time=00:00:45.80 bitrate=N/A dup=1 drop=6 speed=1.01x elapsed=0:00:45.51    frame=  463 fps= 10 q=23.0 size=N/A time=00:00:46.30 bitrate=N/A dup=1 drop=6 speed=1.01x elapsed=0:00:46.01    frame=  468 fps= 10 q=23.0 size=N/A time=00:00:46.80 bitrate=N/A dup=1 drop=6 speed=1.01x elapsed=0:00:46.51    frame=  473 fps= 10 q=23.0 size=N/A time=00:00:47.30 bitrate=N/A dup=1 drop=6 speed=1.01x elapsed=0:00:47.01    frame=  478 fps= 10 q=23.0 size=N/A time=00:00:47.80 bitrate=N/A dup=1 drop=6 speed=1.01x elapsed=0:00:47.51    [hls @ 0x55e0ed2dfac0] Opening '/home/nian/Downloads/files/hls/segment_015.ts' for writing
[hls @ 0x55e0ed2dfac0] Opening '/home/nian/Downloads/files/hls/stream.m3u8.tmp' for writing
frame=  483 fps= 10 q=23.0 size=N/A time=00:00:48.30 bitrate=N/A dup=1 drop=6 speed=1.01x elapsed=0:00:48.01    frame=  488 fps= 10 q=23.0 size=N/A time=00:00:48.80 bitrate=N/A dup=1 drop=6 speed=1.01x elapsed=0:00:48.51    frame=  493 fps= 10 q=23.0 size=N/A time=00:00:49.30 bitrate=N/A dup=1 drop=6 speed=1.01x elapsed=0:00:49.01    frame=  498 fps= 10 q=23.0 size=N/A time=00:00:49.80 bitrate=N/A dup=1 drop=6 speed=1.01x elapsed=0:00:49.51    frame=  503 fps= 10 q=23.0 size=N/A time=00:00:50.30 bitrate=N/A dup=1 drop=6 speed=1.01x elapsed=0:00:50.01    frame=  508 fps= 10 q=23.0 size=N/A time=00:00:50.80 bitrate=N/A dup=1 drop=6 speed=1.01x elapsed=0:00:50.51    [hls @ 0x55e0ed2dfac0] Opening '/home/nian/Downloads/files/hls/segment_016.ts' for writing
[hls @ 0x55e0ed2dfac0] Opening '/home/nian/Downloads/files/hls/stream.m3u8.tmp' for writing
frame=  514 fps= 10 q=23.0 size=N/A time=00:00:51.40 bitrate=N/A dup=1 drop=6 speed=1.01x elapsed=0:00:51.01    frame=  519 fps= 10 q=23.0 size=N/A time=00:00:51.90 bitrate=N/A dup=1 drop=6 speed=1.01x elapsed=0:00:51.51    frame=  523 fps= 10 q=23.0 size=N/A time=00:00:52.30 bitrate=N/A dup=1 drop=7 speed=1.01x elapsed=0:00:52.01    frame=  528 fps= 10 q=23.0 size=N/A time=00:00:52.80 bitrate=N/A dup=1 drop=7 speed=1.01x elapsed=0:00:52.51    frame=  533 fps= 10 q=23.0 size=N/A time=00:00:53.30 bitrate=N/A dup=1 drop=7 speed=1.01x elapsed=0:00:53.01    frame=  538 fps= 10 q=23.0 size=N/A time=00:00:53.80 bitrate=N/A dup=1 drop=7 speed=1.01x elapsed=0:00:53.51    [hls @ 0x55e0ed2dfac0] Opening '/home/nian/Downloads/files/hls/segment_017.ts' for writing
[hls @ 0x55e0ed2dfac0] Opening '/home/nian/Downloads/files/hls/stream.m3u8.tmp' for writing
frame=  543 fps= 10 q=23.0 size=N/A time=00:00:54.30 bitrate=N/A dup=1 drop=7 speed=1.01x elapsed=0:00:54.01    frame=  548 fps= 10 q=23.0 size=N/A time=00:00:54.80 bitrate=N/A dup=1 drop=7 speed=1.01x elapsed=0:00:54.51    frame=  553 fps= 10 q=23.0 size=N/A time=00:00:55.30 bitrate=N/A dup=1 drop=7 speed=1.01x elapsed=0:00:55.01    frame=  558 fps= 10 q=23.0 size=N/A time=00:00:55.80 bitrate=N/A dup=1 drop=7 speed=1.01x elapsed=0:00:55.51    frame=  563 fps= 10 q=23.0 size=N/A time=00:00:56.30 bitrate=N/A dup=1 drop=7 speed=1.01x elapsed=0:00:56.01    frame=  568 fps= 10 q=23.0 size=N/A time=00:00:56.80 bitrate=N/A dup=1 drop=7 speed=1.01x elapsed=0:00:56.51    [hls @ 0x55e0ed2dfac0] Opening '/home/nian/Downloads/files/hls/segment_018.ts' for writing
[hls @ 0x55e0ed2dfac0] Opening '/home/nian/Downloads/files/hls/stream.m3u8.tmp' for writing
frame=  573 fps= 10 q=23.0 size=N/A time=00:00:57.30 bitrate=N/A dup=1 drop=7 speed=1.01x elapsed=0:00:57.01    frame=  579 fps= 10 q=23.0 size=N/A time=00:00:57.90 bitrate=N/A dup=1 drop=7 speed=1.01x elapsed=0:00:57.51    frame=  583 fps= 10 q=23.0 size=N/A time=00:00:58.30 bitrate=N/A dup=1 drop=7 speed=   1x elapsed=0:00:58.01    frame=  588 fps= 10 q=23.0 size=N/A time=00:00:58.80 bitrate=N/A dup=1 drop=8 speed=   1x elapsed=0:00:58.51    frame=  593 fps= 10 q=23.0 size=N/A time=00:00:59.30 bitrate=N/A dup=1 drop=8 speed=   1x elapsed=0:00:59.01    frame=  598 fps= 10 q=23.0 size=N/A time=00:00:59.80 bitrate=N/A dup=1 drop=8 speed=   1x elapsed=0:00:59.51    [hls @ 0x55e0ed2dfac0] Opening '/home/nian/Downloads/files/hls/segment_019.ts' for writing
[hls @ 0x55e0ed2dfac0] Opening '/home/nian/Downloads/files/hls/stream.m3u8.tmp' for writing
frame=  603 fps= 10 q=23.0 size=N/A time=00:01:00.30 bitrate=N/A dup=1 drop=8 speed=   1x elapsed=0:01:00.01    frame=  608 fps= 10 q=23.0 size=N/A time=00:01:00.80 bitrate=N/A dup=1 drop=8 speed=   1x elapsed=0:01:00.51    frame=  613 fps= 10 q=23.0 size=N/A time=00:01:01.30 bitrate=N/A dup=1 drop=8 speed=   1x elapsed=0:01:01.01    frame=  618 fps= 10 q=23.0 size=N/A time=00:01:01.80 bitrate=N/A dup=1 drop=8 speed=   1x elapsed=0:01:01.51    frame=  623 fps= 10 q=23.0 size=N/A time=00:01:02.30 bitrate=N/A dup=1 drop=8 speed=   1x elapsed=0:01:02.01    frame=  628 fps= 10 q=23.0 size=N/A time=00:01:02.80 bitrate=N/A dup=1 drop=8 speed=   1x elapsed=0:01:02.51    [hls @ 0x55e0ed2dfac0] Opening '/home/nian/Downloads/files/hls/segment_020.ts' for writing
[hls @ 0x55e0ed2dfac0] Opening '/home/nian/Downloads/files/hls/stream.m3u8.tmp' for writing
frame=  633 fps= 10 q=23.0 size=N/A time=00:01:03.30 bitrate=N/A dup=1 drop=8 speed=   1x elapsed=0:01:03.01    frame=  639 fps= 10 q=23.0 size=N/A time=00:01:03.90 bitrate=N/A dup=1 drop=8 speed=1.01x elapsed=0:01:03.51    frame=  644 fps= 10 q=23.0 size=N/A time=00:01:04.40 bitrate=N/A dup=1 drop=8 speed=1.01x elapsed=0:01:04.01    frame=  648 fps= 10 q=23.0 size=N/A time=00:01:04.80 bitrate=N/A dup=1 drop=9 speed=   1x elapsed=0:01:04.51    frame=  653 fps= 10 q=23.0 size=N/A time=00:01:05.30 bitrate=N/A dup=1 drop=9 speed=   1x elapsed=0:01:05.01    frame=  658 fps= 10 q=23.0 size=N/A time=00:01:05.80 bitrate=N/A dup=1 drop=9 speed=   1x elapsed=0:01:05.51    [hls @ 0x55e0ed2dfac0] Opening '/home/nian/Downloads/files/hls/segment_021.ts' for writing
[hls @ 0x55e0ed2dfac0] Opening '/home/nian/Downloads/files/hls/stream.m3u8.tmp' for writing
frame=  663 fps= 10 q=23.0 size=N/A time=00:01:06.30 bitrate=N/A dup=1 drop=9 speed=   1x elapsed=0:01:06.01    frame=  668 fps= 10 q=23.0 size=N/A time=00:01:06.80 bitrate=N/A dup=1 drop=9 speed=   1x elapsed=0:01:06.51    frame=  673 fps= 10 q=23.0 size=N/A time=00:01:07.30 bitrate=N/A dup=1 drop=9 speed=   1x elapsed=0:01:07.01    frame=  678 fps= 10 q=23.0 size=N/A time=00:01:07.80 bitrate=N/A dup=1 drop=9 speed=   1x elapsed=0:01:07.51    frame=  683 fps= 10 q=23.0 size=N/A time=00:01:08.30 bitrate=N/A dup=1 drop=9 speed=   1x elapsed=0:01:08.01    frame=  688 fps= 10 q=23.0 size=N/A time=00:01:08.80 bitrate=N/A dup=1 drop=9 speed=   1x elapsed=0:01:08.51    [hls @ 0x55e0ed2dfac0] Opening '/home/nian/Downloads/files/hls/segment_022.ts' for writing
[hls @ 0x55e0ed2dfac0] Opening '/home/nian/Downloads/files/hls/stream.m3u8.tmp' for writing
frame=  693 fps= 10 q=23.0 size=N/A time=00:01:09.30 bitrate=N/A dup=1 drop=9 speed=   1x elapsed=0:01:09.01    frame=  698 fps= 10 q=23.0 size=N/A time=00:01:09.80 bitrate=N/A dup=1 drop=9 speed=   1x elapsed=0:01:09.51    frame=  703 fps= 10 q=23.0 size=N/A time=00:01:10.30 bitrate=N/A dup=1 drop=9 speed=   1x elapsed=0:01:10.01    frame=  709 fps= 10 q=23.0 size=N/A time=00:01:10.90 bitrate=N/A dup=1 drop=9 speed=1.01x elapsed=0:01:10.51    frame=  713 fps= 10 q=23.0 size=N/A time=00:01:11.30 bitrate=N/A dup=1 drop=10 speed=   1x elapsed=0:01:11.01    frame=  718 fps= 10 q=23.0 size=N/A time=00:01:11.80 bitrate=N/A dup=1 drop=10 speed=   1x elapsed=0:01:11.51    [hls @ 0x55e0ed2dfac0] Opening '/home/nian/Downloads/files/hls/segment_023.ts' for writing
[hls @ 0x55e0ed2dfac0] Opening '/home/nian/Downloads/files/hls/stream.m3u8.tmp' for writing
frame=  723 fps= 10 q=23.0 size=N/A time=00:01:12.30 bitrate=N/A dup=1 drop=10 speed=   1x elapsed=0:01:12.01    frame=  728 fps= 10 q=23.0 size=N/A time=00:01:12.80 bitrate=N/A dup=1 drop=10 speed=   1x elapsed=0:01:12.51    frame=  733 fps= 10 q=23.0 size=N/A time=00:01:13.30 bitrate=N/A dup=1 drop=10 speed=   1x elapsed=0:01:13.01    frame=  738 fps= 10 q=23.0 size=N/A time=00:01:13.80 bitrate=N/A dup=1 drop=10 speed=   1x elapsed=0:01:13.51    frame=  743 fps= 10 q=23.0 size=N/A time=00:01:14.30 bitrate=N/A dup=1 drop=10 speed=   1x elapsed=0:01:14.01    frame=  748 fps= 10 q=23.0 size=N/A time=00:01:14.80 bitrate=N/A dup=1 drop=10 speed=   1x elapsed=0:01:14.51    [hls @ 0x55e0ed2dfac0] Opening '/home/nian/Downloads/files/hls/segment_024.ts' for writing
[hls @ 0x55e0ed2dfac0] Opening '/home/nian/Downloads/files/hls/stream.m3u8.tmp' for writing
frame=  753 fps= 10 q=23.0 size=N/A time=00:01:15.30 bitrate=N/A dup=1 drop=10 speed=   1x elapsed=0:01:15.01    frame=  758 fps= 10 q=23.0 size=N/A time=00:01:15.80 bitrate=N/A dup=1 drop=10 speed=   1x elapsed=0:01:15.51    frame=  764 fps= 10 q=23.0 size=N/A time=00:01:16.40 bitrate=N/A dup=1 drop=10 speed=1.01x elapsed=0:01:16.01    frame=  769 fps= 10 q=23.0 size=N/A time=00:01:16.90 bitrate=N/A dup=1 drop=10 speed=   1x elapsed=0:01:16.51    frame=  774 fps= 10 q=23.0 size=N/A time=00:01:17.40 bitrate=N/A dup=1 drop=10 speed=   1x elapsed=0:01:17.01    frame=  778 fps= 10 q=23.0 size=N/A time=00:01:17.80 bitrate=N/A dup=1 drop=11 speed=   1x elapsed=0:01:17.51    [hls @ 0x55e0ed2dfac0] Opening '/home/nian/Downloads/files/hls/segment_025.ts' for writing
[hls @ 0x55e0ed2dfac0] Opening '/home/nian/Downloads/files/hls/stream.m3u8.tmp' for writing
frame=  783 fps= 10 q=23.0 size=N/A time=00:01:18.30 bitrate=N/A dup=1 drop=11 speed=   1x elapsed=0:01:18.01    frame=  788 fps= 10 q=23.0 size=N/A time=00:01:18.80 bitrate=N/A dup=1 drop=11 speed=   1x elapsed=0:01:18.51    frame=  793 fps= 10 q=23.0 size=N/A time=00:01:19.30 bitrate=N/A dup=1 drop=11 speed=   1x elapsed=0:01:19.01    frame=  798 fps= 10 q=23.0 size=N/A time=00:01:19.80 bitrate=N/A dup=1 drop=11 speed=   1x elapsed=0:01:19.51    frame=  803 fps= 10 q=23.0 size=N/A time=00:01:20.30 bitrate=N/A dup=1 drop=11 speed=   1x elapsed=0:01:20.01    frame=  808 fps= 10 q=23.0 size=N/A time=00:01:20.80 bitrate=N/A dup=1 drop=11 speed=   1x elapsed=0:01:20.51    [hls @ 0x55e0ed2dfac0] Opening '/home/nian/Downloads/files/hls/segment_026.ts' for writing
[hls @ 0x55e0ed2dfac0] Opening '/home/nian/Downloads/files/hls/stream.m3u8.tmp' for writing
frame=  813 fps= 10 q=23.0 size=N/A time=00:01:21.30 bitrate=N/A dup=1 drop=11 speed=   1x elapsed=0:01:21.02    frame=  818 fps= 10 q=23.0 size=N/A time=00:01:21.80 bitrate=N/A dup=1 drop=11 speed=   1x elapsed=0:01:21.52    frame=  823 fps= 10 q=23.0 size=N/A time=00:01:22.30 bitrate=N/A dup=1 drop=11 speed=   1x elapsed=0:01:22.02    frame=  829 fps= 10 q=23.0 size=N/A time=00:01:22.90 bitrate=N/A dup=1 drop=11 speed=   1x elapsed=0:01:22.52    frame=  834 fps= 10 q=23.0 size=N/A time=00:01:23.40 bitrate=N/A dup=1 drop=11 speed=   1x elapsed=0:01:23.02    frame=  838 fps= 10 q=23.0 size=N/A time=00:01:23.80 bitrate=N/A dup=1 drop=11 speed=   1x elapsed=0:01:23.52    [hls @ 0x55e0ed2dfac0] Opening '/home/nian/Downloads/files/hls/segment_027.ts' for writing
[hls @ 0x55e0ed2dfac0] Opening '/home/nian/Downloads/files/hls/stream.m3u8.tmp' for writing
frame=  843 fps= 10 q=23.0 size=N/A time=00:01:24.30 bitrate=N/A dup=1 drop=12 speed=   1x elapsed=0:01:24.02    frame=  848 fps= 10 q=23.0 size=N/A time=00:01:24.80 bitrate=N/A dup=1 drop=12 speed=   1x elapsed=0:01:24.52    frame=  853 fps= 10 q=23.0 size=N/A time=00:01:25.30 bitrate=N/A dup=1 drop=12 speed=   1x elapsed=0:01:25.02    frame=  858 fps= 10 q=23.0 size=N/A time=00:01:25.80 bitrate=N/A dup=1 drop=12 speed=   1x elapsed=0:01:25.52    frame=  863 fps= 10 q=23.0 size=N/A time=00:01:26.30 bitrate=N/A dup=1 drop=12 speed=   1x elapsed=0:01:26.02    frame=  868 fps= 10 q=23.0 size=N/A time=00:01:26.80 bitrate=N/A dup=1 drop=12 speed=   1x elapsed=0:01:26.52    [hls @ 0x55e0ed2dfac0] Opening '/home/nian/Downloads/files/hls/segment_028.ts' for writing
[hls @ 0x55e0ed2dfac0] Opening '/home/nian/Downloads/files/hls/stream.m3u8.tmp' for writing
frame=  873 fps= 10 q=23.0 size=N/A time=00:01:27.30 bitrate=N/A dup=1 drop=12 speed=   1x elapsed=0:01:27.02    frame=  878 fps= 10 q=23.0 size=N/A time=00:01:27.80 bitrate=N/A dup=1 drop=12 speed=   1x elapsed=0:01:27.52    frame=  883 fps= 10 q=23.0 size=N/A time=00:01:28.30 bitrate=N/A dup=1 drop=12 speed=   1x elapsed=0:01:28.02    frame=  888 fps= 10 q=23.0 size=N/A time=00:01:28.80 bitrate=N/A dup=1 drop=12 speed=   1x elapsed=0:01:28.52    frame=  894 fps= 10 q=23.0 size=N/A time=00:01:29.40 bitrate=N/A dup=1 drop=12 speed=   1x elapsed=0:01:29.02    frame=  899 fps= 10 q=23.0 size=N/A time=00:01:29.90 bitrate=N/A dup=1 drop=12 speed=   1x elapsed=0:01:29.52    [hls @ 0x55e0ed2dfac0] Opening '/home/nian/Downloads/files/hls/segment_029.ts' for writing
[hls @ 0x55e0ed2dfac0] Opening '/home/nian/Downloads/files/hls/stream.m3u8.tmp' for writing
frame=  903 fps= 10 q=23.0 size=N/A time=00:01:30.30 bitrate=N/A dup=1 drop=13 speed=   1x elapsed=0:01:30.02    frame=  908 fps= 10 q=23.0 size=N/A time=00:01:30.80 bitrate=N/A dup=1 drop=13 speed=   1x elapsed=0:01:30.52    frame=  913 fps= 10 q=23.0 size=N/A time=00:01:31.30 bitrate=N/A dup=1 drop=13 speed=   1x elapsed=0:01:31.02    frame=  918 fps= 10 q=23.0 size=N/A time=00:01:31.80 bitrate=N/A dup=1 drop=13 speed=   1x elapsed=0:01:31.52    frame=  923 fps= 10 q=23.0 size=N/A time=00:01:32.30 bitrate=N/A dup=1 drop=13 speed=   1x elapsed=0:01:32.02    frame=  928 fps= 10 q=23.0 size=N/A time=00:01:32.80 bitrate=N/A dup=1 drop=13 speed=   1x elapsed=0:01:32.52    [hls @ 0x55e0ed2dfac0] Opening '/home/nian/Downloads/files/hls/segment_030.ts' for writing
[hls @ 0x55e0ed2dfac0] Opening '/home/nian/Downloads/files/hls/stream.m3u8.tmp' for writing
frame=  933 fps= 10 q=23.0 size=N/A time=00:01:33.30 bitrate=N/A dup=1 drop=13 speed=   1x elapsed=0:01:33.02    frame=  938 fps= 10 q=23.0 size=N/A time=00:01:33.80 bitrate=N/A dup=1 drop=13 speed=   1x elapsed=0:01:33.52    frame=  943 fps= 10 q=23.0 size=N/A time=00:01:34.30 bitrate=N/A dup=1 drop=13 speed=   1x elapsed=0:01:34.02    frame=  948 fps= 10 q=23.0 size=N/A time=00:01:34.80 bitrate=N/A dup=1 drop=13 speed=   1x elapsed=0:01:34.52    frame=  954 fps= 10 q=23.0 size=N/A time=00:01:35.40 bitrate=N/A dup=1 drop=13 speed=   1x elapsed=0:01:35.02    frame=  959 fps= 10 q=23.0 size=N/A time=00:01:35.90 bitrate=N/A dup=1 drop=13 speed=   1x elapsed=0:01:35.52    [hls @ 0x55e0ed2dfac0] Opening '/home/nian/Downloads/files/hls/segment_031.ts' for writing
[hls @ 0x55e0ed2dfac0] Opening '/home/nian/Downloads/files/hls/stream.m3u8.tmp' for writing
frame=  964 fps= 10 q=23.0 size=N/A time=00:01:36.40 bitrate=N/A dup=1 drop=13 speed=   1x elapsed=0:01:36.02    frame=  968 fps= 10 q=23.0 size=N/A time=00:01:36.80 bitrate=N/A dup=1 drop=14 speed=   1x elapsed=0:01:36.52    frame=  973 fps= 10 q=23.0 size=N/A time=00:01:37.30 bitrate=N/A dup=1 drop=14 speed=   1x elapsed=0:01:37.02    frame=  978 fps= 10 q=23.0 size=N/A time=00:01:37.80 bitrate=N/A dup=1 drop=14 speed=   1x elapsed=0:01:37.52    frame=  983 fps= 10 q=23.0 size=N/A time=00:01:38.30 bitrate=N/A dup=1 drop=14 speed=   1x elapsed=0:01:38.02    frame=  988 fps= 10 q=23.0 size=N/A time=00:01:38.80 bitrate=N/A dup=1 drop=14 speed=   1x elapsed=0:01:38.52    [hls @ 0x55e0ed2dfac0] Opening '/home/nian/Downloads/files/hls/segment_032.ts' for writing
[hls @ 0x55e0ed2dfac0] Opening '/home/nian/Downloads/files/hls/stream.m3u8.tmp' for writing
frame=  993 fps= 10 q=23.0 size=N/A time=00:01:39.30 bitrate=N/A dup=1 drop=14 speed=   1x elapsed=0:01:39.02    frame=  998 fps= 10 q=23.0 size=N/A time=00:01:39.80 bitrate=N/A dup=1 drop=14 speed=   1x elapsed=0:01:39.52    frame= 1003 fps= 10 q=23.0 size=N/A time=00:01:40.30 bitrate=N/A dup=1 drop=14 speed=   1x elapsed=0:01:40.02    frame= 1008 fps= 10 q=23.0 size=N/A time=00:01:40.80 bitrate=N/A dup=1 drop=14 speed=   1x elapsed=0:01:40.52    frame= 1013 fps= 10 q=23.0 size=N/A time=00:01:41.30 bitrate=N/A dup=1 drop=14 speed=   1x elapsed=0:01:41.02    frame= 1019 fps= 10 q=23.0 size=N/A time=00:01:41.90 bitrate=N/A dup=1 drop=14 speed=   1x elapsed=0:01:41.52    [hls @ 0x55e0ed2dfac0] Opening '/home/nian/Downloads/files/hls/segment_033.ts' for writing
[hls @ 0x55e0ed2dfac0] Opening '/home/nian/Downloads/files/hls/stream.m3u8.tmp' for writing
frame= 1024 fps= 10 q=23.0 size=N/A time=00:01:42.40 bitrate=N/A dup=1 drop=14 speed=   1x elapsed=0:01:42.02    frame= 1029 fps= 10 q=23.0 size=N/A time=00:01:42.90 bitrate=N/A dup=1 drop=14 speed=   1x elapsed=0:01:42.52    frame= 1033 fps= 10 q=23.0 size=N/A time=00:01:43.30 bitrate=N/A dup=1 drop=15 speed=   1x elapsed=0:01:43.02    frame= 1038 fps= 10 q=23.0 size=N/A time=00:01:43.80 bitrate=N/A dup=1 drop=15 speed=   1x elapsed=0:01:43.52    frame= 1043 fps= 10 q=23.0 size=N/A time=00:01:44.30 bitrate=N/A dup=1 drop=15 speed=   1x elapsed=0:01:44.02    frame= 1048 fps= 10 q=23.0 size=N/A time=00:01:44.80 bitrate=N/A dup=1 drop=15 speed=   1x elapsed=0:01:44.52    [hls @ 0x55e0ed2dfac0] Opening '/home/nian/Downloads/files/hls/segment_034.ts' for writing
[hls @ 0x55e0ed2dfac0] Opening '/home/nian/Downloads/files/hls/stream.m3u8.tmp' for writing
frame= 1053 fps= 10 q=23.0 size=N/A time=00:01:45.30 bitrate=N/A dup=1 drop=15 speed=   1x elapsed=0:01:45.02    frame= 1058 fps= 10 q=23.0 size=N/A time=00:01:45.80 bitrate=N/A dup=1 drop=15 speed=   1x elapsed=0:01:45.52    frame= 1063 fps= 10 q=23.0 size=N/A time=00:01:46.30 bitrate=N/A dup=1 drop=15 speed=   1x elapsed=0:01:46.02    frame= 1068 fps= 10 q=23.0 size=N/A time=00:01:46.80 bitrate=N/A dup=1 drop=15 speed=   1x elapsed=0:01:46.52    frame= 1073 fps= 10 q=23.0 size=N/A time=00:01:47.30 bitrate=N/A dup=1 drop=15 speed=   1x elapsed=0:01:47.02    frame= 1078 fps= 10 q=23.0 size=N/A time=00:01:47.80 bitrate=N/A dup=1 drop=15 speed=   1x elapsed=0:01:47.52    [hls @ 0x55e0ed2dfac0] Opening '/home/nian/Downloads/files/hls/segment_035.ts' for writing
[hls @ 0x55e0ed2dfac0] Opening '/home/nian/Downloads/files/hls/stream.m3u8.tmp' for writing
frame= 1084 fps= 10 q=23.0 size=N/A time=00:01:48.40 bitrate=N/A dup=1 drop=15 speed=   1x elapsed=0:01:48.02    frame= 1089 fps= 10 q=23.0 size=N/A time=00:01:48.90 bitrate=N/A dup=1 drop=15 speed=   1x elapsed=0:01:48.52    frame= 1094 fps= 10 q=23.0 size=N/A time=00:01:49.40 bitrate=N/A dup=1 drop=15 speed=   1x elapsed=0:01:49.02    frame= 1098 fps= 10 q=23.0 size=N/A time=00:01:49.80 bitrate=N/A dup=1 drop=16 speed=   1x elapsed=0:01:49.52    frame= 1103 fps= 10 q=23.0 size=N/A time=00:01:50.30 bitrate=N/A dup=1 drop=16 speed=   1x elapsed=0:01:50.02    frame= 1108 fps= 10 q=23.0 size=N/A time=00:01:50.80 bitrate=N/A dup=1 drop=16 speed=   1x elapsed=0:01:50.52    [hls @ 0x55e0ed2dfac0] Opening '/home/nian/Downloads/files/hls/segment_036.ts' for writing
[hls @ 0x55e0ed2dfac0] Opening '/home/nian/Downloads/files/hls/stream.m3u8.tmp' for writing
frame= 1113 fps= 10 q=23.0 size=N/A time=00:01:51.30 bitrate=N/A dup=1 drop=16 speed=   1x elapsed=0:01:51.02    frame= 1118 fps= 10 q=23.0 size=N/A time=00:01:51.80 bitrate=N/A dup=1 drop=16 speed=   1x elapsed=0:01:51.52    frame= 1123 fps= 10 q=23.0 size=N/A time=00:01:52.30 bitrate=N/A dup=1 drop=16 speed=   1x elapsed=0:01:52.02    frame= 1128 fps= 10 q=23.0 size=N/A time=00:01:52.80 bitrate=N/A dup=1 drop=16 speed=   1x elapsed=0:01:52.52    frame= 1133 fps= 10 q=23.0 size=N/A time=00:01:53.30 bitrate=N/A dup=1 drop=16 speed=   1x elapsed=0:01:53.02    frame= 1139 fps= 10 q=23.0 size=N/A time=00:01:53.90 bitrate=N/A dup=1 drop=16 speed=   1x elapsed=0:01:53.52    [hls @ 0x55e0ed2dfac0] Opening '/home/nian/Downloads/files/hls/segment_037.ts' for writing
[hls @ 0x55e0ed2dfac0] Opening '/home/nian/Downloads/files/hls/stream.m3u8.tmp' for writing
frame= 1144 fps= 10 q=23.0 size=N/A time=00:01:54.40 bitrate=N/A dup=1 drop=16 speed=   1x elapsed=0:01:54.02    frame= 1149 fps= 10 q=23.0 size=N/A time=00:01:54.90 bitrate=N/A dup=1 drop=16 speed=   1x elapsed=0:01:54.52    frame= 1154 fps= 10 q=23.0 size=N/A time=00:01:55.40 bitrate=N/A dup=1 drop=16 speed=   1x elapsed=0:01:55.02    frame= 1159 fps= 10 q=23.0 size=N/A time=00:01:55.90 bitrate=N/A dup=1 drop=16 speed=   1x elapsed=0:01:55.52    frame= 1163 fps= 10 q=23.0 size=N/A time=00:01:56.30 bitrate=N/A dup=1 drop=17 speed=   1x elapsed=0:01:56.02    frame= 1168 fps= 10 q=23.0 size=N/A time=00:01:56.80 bitrate=N/A dup=1 drop=17 speed=   1x elapsed=0:01:56.52    [hls @ 0x55e0ed2dfac0] Opening '/home/nian/Downloads/files/hls/segment_038.ts' for writing
[hls @ 0x55e0ed2dfac0] Opening '/home/nian/Downloads/files/hls/stream.m3u8.tmp' for writing
frame= 1173 fps= 10 q=23.0 size=N/A time=00:01:57.30 bitrate=N/A dup=1 drop=17 speed=   1x elapsed=0:01:57.02    frame= 1178 fps= 10 q=23.0 size=N/A time=00:01:57.80 bitrate=N/A dup=1 drop=17 speed=   1x elapsed=0:01:57.52    frame= 1183 fps= 10 q=23.0 size=N/A time=00:01:58.30 bitrate=N/A dup=1 drop=17 speed=   1x elapsed=0:01:58.02    frame= 1188 fps= 10 q=23.0 size=N/A time=00:01:58.80 bitrate=N/A dup=1 drop=17 speed=   1x elapsed=0:01:58.52    frame= 1193 fps= 10 q=23.0 size=N/A time=00:01:59.30 bitrate=N/A dup=1 drop=17 speed=   1x elapsed=0:01:59.02    frame= 1198 fps= 10 q=23.0 size=N/A time=00:01:59.80 bitrate=N/A dup=1 drop=17 speed=   1x elapsed=0:01:59.52    [hls @ 0x55e0ed2dfac0] Opening '/home/nian/Downloads/files/hls/segment_039.ts' for writing
[hls @ 0x55e0ed2dfac0] Opening '/home/nian/Downloads/files/hls/stream.m3u8.tmp' for writing
frame= 1203 fps= 10 q=23.0 size=N/A time=00:02:00.30 bitrate=N/A dup=1 drop=17 speed=   1x elapsed=0:02:00.02    frame= 1209 fps= 10 q=23.0 size=N/A time=00:02:00.90 bitrate=N/A dup=1 drop=17 speed=   1x elapsed=0:02:00.52    frame= 1214 fps= 10 q=23.0 size=N/A time=00:02:01.40 bitrate=N/A dup=1 drop=17 speed=   1x elapsed=0:02:01.02    frame= 1219 fps= 10 q=23.0 size=N/A time=00:02:01.90 bitrate=N/A dup=1 drop=17 speed=   1x elapsed=0:02:01.53    frame= 1224 fps= 10 q=23.0 size=N/A time=00:02:02.40 bitrate=N/A dup=1 drop=17 speed=   1x elapsed=0:02:02.03    frame= 1228 fps= 10 q=23.0 size=N/A time=00:02:02.80 bitrate=N/A dup=1 drop=18 speed=   1x elapsed=0:02:02.53    [hls @ 0x55e0ed2dfac0] Opening '/home/nian/Downloads/files/hls/segment_040.ts' for writing
[hls @ 0x55e0ed2dfac0] Opening '/home/nian/Downloads/files/hls/stream.m3u8.tmp' for writing
frame= 1233 fps= 10 q=23.0 size=N/A time=00:02:03.30 bitrate=N/A dup=1 drop=18 speed=   1x elapsed=0:02:03.03    frame= 1238 fps= 10 q=23.0 size=N/A time=00:02:03.80 bitrate=N/A dup=1 drop=18 speed=   1x elapsed=0:02:03.53    frame= 1243 fps= 10 q=23.0 size=N/A time=00:02:04.30 bitrate=N/A dup=1 drop=18 speed=   1x elapsed=0:02:04.03    frame= 1248 fps= 10 q=23.0 size=N/A time=00:02:04.80 bitrate=N/A dup=1 drop=18 speed=   1x elapsed=0:02:04.53    frame= 1253 fps= 10 q=23.0 size=N/A time=00:02:05.30 bitrate=N/A dup=1 drop=18 speed=   1x elapsed=0:02:05.03    frame= 1258 fps= 10 q=23.0 size=N/A time=00:02:05.80 bitrate=N/A dup=1 drop=18 speed=   1x elapsed=0:02:05.53    [hls @ 0x55e0ed2dfac0] Opening '/home/nian/Downloads/files/hls/segment_041.ts' for writing
[hls @ 0x55e0ed2dfac0] Opening '/home/nian/Downloads/files/hls/stream.m3u8.tmp' for writing
frame= 1263 fps= 10 q=23.0 size=N/A time=00:02:06.30 bitrate=N/A dup=1 drop=18 speed=   1x elapsed=0:02:06.03    frame= 1269 fps= 10 q=23.0 size=N/A time=00:02:06.90 bitrate=N/A dup=1 drop=18 speed=   1x elapsed=0:02:06.53    frame= 1274 fps= 10 q=23.0 size=N/A time=00:02:07.40 bitrate=N/A dup=1 drop=18 speed=   1x elapsed=0:02:07.03    frame= 1279 fps= 10 q=23.0 size=N/A time=00:02:07.90 bitrate=N/A dup=1 drop=18 speed=   1x elapsed=0:02:07.53    frame= 1284 fps= 10 q=23.0 size=N/A time=00:02:08.40 bitrate=N/A dup=1 drop=18 speed=   1x elapsed=0:02:08.03    frame= 1288 fps= 10 q=23.0 size=N/A time=00:02:08.80 bitrate=N/A dup=1 drop=18 speed=   1x elapsed=0:02:08.53    [hls @ 0x55e0ed2dfac0] Opening '/home/nian/Downloads/files/hls/segment_042.ts' for writing
[hls @ 0x55e0ed2dfac0] Opening '/home/nian/Downloads/files/hls/stream.m3u8.tmp' for writing
frame= 1293 fps= 10 q=23.0 size=N/A time=00:02:09.30 bitrate=N/A dup=1 drop=19 speed=   1x elapsed=0:02:09.03    frame= 1298 fps= 10 q=23.0 size=N/A time=00:02:09.80 bitrate=N/A dup=1 drop=19 speed=   1x elapsed=0:02:09.53    frame= 1303 fps= 10 q=23.0 size=N/A time=00:02:10.30 bitrate=N/A dup=1 drop=19 speed=   1x elapsed=0:02:10.03    frame= 1308 fps= 10 q=23.0 size=N/A time=00:02:10.80 bitrate=N/A dup=1 drop=19 speed=   1x elapsed=0:02:10.53    frame= 1313 fps= 10 q=23.0 size=N/A time=00:02:11.30 bitrate=N/A dup=1 drop=19 speed=   1x elapsed=0:02:11.03    frame= 1318 fps= 10 q=23.0 size=N/A time=00:02:11.80 bitrate=N/A dup=1 drop=19 speed=   1x elapsed=0:02:11.53    [hls @ 0x55e0ed2dfac0] Opening '/home/nian/Downloads/files/hls/segment_043.ts' for writing
[hls @ 0x55e0ed2dfac0] Opening '/home/nian/Downloads/files/hls/stream.m3u8.tmp' for writing
frame= 1323 fps= 10 q=23.0 size=N/A time=00:02:12.30 bitrate=N/A dup=1 drop=19 speed=   1x elapsed=0:02:12.03    frame= 1328 fps= 10 q=23.0 size=N/A time=00:02:12.80 bitrate=N/A dup=1 drop=19 speed=   1x elapsed=0:02:12.53    frame= 1334 fps= 10 q=23.0 size=N/A time=00:02:13.40 bitrate=N/A dup=1 drop=19 speed=   1x elapsed=0:02:13.03    frame= 1339 fps= 10 q=23.0 size=N/A time=00:02:13.90 bitrate=N/A dup=1 drop=19 speed=   1x elapsed=0:02:13.53    frame= 1344 fps= 10 q=23.0 size=N/A time=00:02:14.40 bitrate=N/A dup=1 drop=19 speed=   1x elapsed=0:02:14.03    frame= 1349 fps= 10 q=23.0 size=N/A time=00:02:14.90 bitrate=N/A dup=1 drop=19 speed=   1x elapsed=0:02:14.53    [hls @ 0x55e0ed2dfac0] Opening '/home/nian/Downloads/files/hls/segment_044.ts' for writing
[hls @ 0x55e0ed2dfac0] Opening '/home/nian/Downloads/files/hls/stream.m3u8.tmp' for writing
frame= 1353 fps= 10 q=23.0 size=N/A time=00:02:15.30 bitrate=N/A dup=1 drop=20 speed=   1x elapsed=0:02:15.03    frame= 1358 fps= 10 q=23.0 size=N/A time=00:02:15.80 bitrate=N/A dup=1 drop=20 speed=   1x elapsed=0:02:15.53    frame= 1363 fps= 10 q=23.0 size=N/A time=00:02:16.30 bitrate=N/A dup=1 drop=20 speed=   1x elapsed=0:02:16.03    frame= 1368 fps= 10 q=23.0 size=N/A time=00:02:16.80 bitrate=N/A dup=1 drop=20 speed=   1x elapsed=0:02:16.53    frame= 1373 fps= 10 q=23.0 size=N/A time=00:02:17.30 bitrate=N/A dup=1 drop=20 speed=   1x elapsed=0:02:17.03    frame= 1378 fps= 10 q=23.0 size=N/A time=00:02:17.80 bitrate=N/A dup=1 drop=20 speed=   1x elapsed=0:02:17.53    [hls @ 0x55e0ed2dfac0] Opening '/home/nian/Downloads/files/hls/segment_045.ts' for writing
[hls @ 0x55e0ed2dfac0] Opening '/home/nian/Downloads/files/hls/stream.m3u8.tmp' for writing
frame= 1383 fps= 10 q=23.0 size=N/A time=00:02:18.30 bitrate=N/A dup=1 drop=20 speed=   1x elapsed=0:02:18.03    frame= 1388 fps= 10 q=23.0 size=N/A time=00:02:18.80 bitrate=N/A dup=1 drop=20 speed=   1x elapsed=0:02:18.53    frame= 1393 fps= 10 q=23.0 size=N/A time=00:02:19.30 bitrate=N/A dup=1 drop=20 speed=   1x elapsed=0:02:19.03    frame= 1399 fps= 10 q=23.0 size=N/A time=00:02:19.90 bitrate=N/A dup=1 drop=20 speed=   1x elapsed=0:02:19.53    frame= 1404 fps= 10 q=23.0 size=N/A time=00:02:20.40 bitrate=N/A dup=1 drop=20 speed=   1x elapsed=0:02:20.03    frame= 1409 fps= 10 q=23.0 size=N/A time=00:02:20.90 bitrate=N/A dup=1 drop=20 speed=   1x elapsed=0:02:20.53    [hls @ 0x55e0ed2dfac0] Opening '/home/nian/Downloads/files/hls/segment_046.ts' for writing
[hls @ 0x55e0ed2dfac0] Opening '/home/nian/Downloads/files/hls/stream.m3u8.tmp' for writing
frame= 1414 fps= 10 q=23.0 size=N/A time=00:02:21.40 bitrate=N/A dup=1 drop=20 speed=   1x elapsed=0:02:21.03    frame= 1418 fps= 10 q=23.0 size=N/A time=00:02:21.80 bitrate=N/A dup=1 drop=21 speed=   1x elapsed=0:02:21.53    frame= 1423 fps= 10 q=23.0 size=N/A time=00:02:22.30 bitrate=N/A dup=1 drop=21 speed=   1x elapsed=0:02:22.03    frame= 1428 fps= 10 q=23.0 size=N/A time=00:02:22.80 bitrate=N/A dup=1 drop=21 speed=   1x elapsed=0:02:22.53    frame= 1433 fps= 10 q=23.0 size=N/A time=00:02:23.30 bitrate=N/A dup=1 drop=21 speed=   1x elapsed=0:02:23.03    frame= 1438 fps= 10 q=23.0 size=N/A time=00:02:23.80 bitrate=N/A dup=1 drop=21 speed=   1x elapsed=0:02:23.53    [hls @ 0x55e0ed2dfac0] Opening '/home/nian/Downloads/files/hls/segment_047.ts' for writing
[hls @ 0x55e0ed2dfac0] Opening '/home/nian/Downloads/files/hls/stream.m3u8.tmp' for writing
frame= 1443 fps= 10 q=23.0 size=N/A time=00:02:24.30 bitrate=N/A dup=1 drop=21 speed=   1x elapsed=0:02:24.03    frame= 1448 fps= 10 q=23.0 size=N/A time=00:02:24.80 bitrate=N/A dup=1 drop=21 speed=   1x elapsed=0:02:24.53    frame= 1453 fps= 10 q=23.0 size=N/A time=00:02:25.30 bitrate=N/A dup=1 drop=21 speed=   1x elapsed=0:02:25.03    frame= 1459 fps= 10 q=23.0 size=N/A time=00:02:25.90 bitrate=N/A dup=1 drop=21 speed=   1x elapsed=0:02:25.53    frame= 1464 fps= 10 q=23.0 size=N/A time=00:02:26.40 bitrate=N/A dup=1 drop=21 speed=   1x elapsed=0:02:26.03    frame= 1469 fps= 10 q=23.0 size=N/A time=00:02:26.90 bitrate=N/A dup=1 drop=21 speed=   1x elapsed=0:02:26.53    [hls @ 0x55e0ed2dfac0] Opening '/home/nian/Downloads/files/hls/segment_048.ts' for writing
[hls @ 0x55e0ed2dfac0] Opening '/home/nian/Downloads/files/hls/stream.m3u8.tmp' for writing
frame= 1474 fps= 10 q=23.0 size=N/A time=00:02:27.40 bitrate=N/A dup=1 drop=21 speed=   1x elapsed=0:02:27.03    frame= 1479 fps= 10 q=23.0 size=N/A time=00:02:27.90 bitrate=N/A dup=1 drop=21 speed=   1x elapsed=0:02:27.53    frame= 1483 fps= 10 q=23.0 size=N/A time=00:02:28.30 bitrate=N/A dup=1 drop=22 speed=   1x elapsed=0:02:28.03    frame= 1488 fps= 10 q=23.0 size=N/A time=00:02:28.80 bitrate=N/A dup=1 drop=22 speed=   1x elapsed=0:02:28.53    frame= 1493 fps= 10 q=23.0 size=N/A time=00:02:29.30 bitrate=N/A dup=1 drop=22 speed=   1x elapsed=0:02:29.03    frame= 1498 fps= 10 q=23.0 size=N/A time=00:02:29.80 bitrate=N/A dup=1 drop=22 speed=   1x elapsed=0:02:29.53    [hls @ 0x55e0ed2dfac0] Opening '/home/nian/Downloads/files/hls/segment_049.ts' for writing
[hls @ 0x55e0ed2dfac0] Opening '/home/nian/Downloads/files/hls/stream.m3u8.tmp' for writing
frame= 1503 fps= 10 q=23.0 size=N/A time=00:02:30.30 bitrate=N/A dup=1 drop=22 speed=   1x elapsed=0:02:30.03    frame= 1508 fps= 10 q=23.0 size=N/A time=00:02:30.80 bitrate=N/A dup=1 drop=22 speed=   1x elapsed=0:02:30.53    frame= 1513 fps= 10 q=23.0 size=N/A time=00:02:31.30 bitrate=N/A dup=1 drop=22 speed=   1x elapsed=0:02:31.03    frame= 1518 fps= 10 q=23.0 size=N/A time=00:02:31.80 bitrate=N/A dup=1 drop=22 speed=   1x elapsed=0:02:31.53    frame= 1524 fps= 10 q=23.0 size=N/A time=00:02:32.40 bitrate=N/A dup=1 drop=22 speed=   1x elapsed=0:02:32.03    frame= 1529 fps= 10 q=23.0 size=N/A time=00:02:32.90 bitrate=N/A dup=1 drop=22 speed=   1x elapsed=0:02:32.53    [hls @ 0x55e0ed2dfac0] Opening '/home/nian/Downloads/files/hls/segment_050.ts' for writing
[hls @ 0x55e0ed2dfac0] Opening '/home/nian/Downloads/files/hls/stream.m3u8.tmp' for writing
frame= 1534 fps= 10 q=23.0 size=N/A time=00:02:33.40 bitrate=N/A dup=1 drop=22 speed=   1x elapsed=0:02:33.03    frame= 1539 fps= 10 q=23.0 size=N/A time=00:02:33.90 bitrate=N/A dup=1 drop=22 speed=   1x elapsed=0:02:33.53    frame= 1543 fps= 10 q=23.0 size=N/A time=00:02:34.30 bitrate=N/A dup=1 drop=22 speed=   1x elapsed=0:02:34.03    frame= 1548 fps= 10 q=23.0 size=N/A time=00:02:34.80 bitrate=N/A dup=1 drop=23 speed=   1x elapsed=0:02:34.53    frame= 1553 fps= 10 q=23.0 size=N/A time=00:02:35.30 bitrate=N/A dup=1 drop=23 speed=   1x elapsed=0:02:35.03    frame= 1558 fps= 10 q=23.0 size=N/A time=00:02:35.80 bitrate=N/A dup=1 drop=23 speed=   1x elapsed=0:02:35.53    [hls @ 0x55e0ed2dfac0] Opening '/home/nian/Downloads/files/hls/segment_051.ts' for writing
[hls @ 0x55e0ed2dfac0] Opening '/home/nian/Downloads/files/hls/stream.m3u8.tmp' for writing
frame= 1563 fps= 10 q=23.0 size=N/A time=00:02:36.30 bitrate=N/A dup=1 drop=23 speed=   1x elapsed=0:02:36.03    frame= 1568 fps= 10 q=23.0 size=N/A time=00:02:36.80 bitrate=N/A dup=1 drop=23 speed=   1x elapsed=0:02:36.53    frame= 1573 fps= 10 q=23.0 size=N/A time=00:02:37.30 bitrate=N/A dup=1 drop=23 speed=   1x elapsed=0:02:37.03    frame= 1578 fps= 10 q=23.0 size=N/A time=00:02:37.80 bitrate=N/A dup=1 drop=23 speed=   1x elapsed=0:02:37.53    frame= 1584 fps= 10 q=23.0 size=N/A time=00:02:38.40 bitrate=N/A dup=1 drop=23 speed=   1x elapsed=0:02:38.03    frame= 1589 fps= 10 q=23.0 size=N/A time=00:02:38.90 bitrate=N/A dup=1 drop=23 speed=   1x elapsed=0:02:38.53    [hls @ 0x55e0ed2dfac0] Opening '/home/nian/Downloads/files/hls/segment_052.ts' for writing
[hls @ 0x55e0ed2dfac0] Opening '/home/nian/Downloads/files/hls/stream.m3u8.tmp' for writing
frame= 1594 fps= 10 q=23.0 size=N/A time=00:02:39.40 bitrate=N/A dup=1 drop=23 speed=   1x elapsed=0:02:39.03    frame= 1599 fps= 10 q=23.0 size=N/A time=00:02:39.90 bitrate=N/A dup=1 drop=23 speed=   1x elapsed=0:02:39.53    frame= 1604 fps= 10 q=23.0 size=N/A time=00:02:40.40 bitrate=N/A dup=1 drop=23 speed=   1x elapsed=0:02:40.04    frame= 1608 fps= 10 q=23.0 size=N/A time=00:02:40.80 bitrate=N/A dup=1 drop=24 speed=   1x elapsed=0:02:40.54    frame= 1613 fps= 10 q=23.0 size=N/A time=00:02:41.30 bitrate=N/A dup=1 drop=24 speed=   1x elapsed=0:02:41.04    frame= 1618 fps= 10 q=23.0 size=N/A time=00:02:41.80 bitrate=N/A dup=1 drop=24 speed=   1x elapsed=0:02:41.54    [hls @ 0x55e0ed2dfac0] Opening '/home/nian/Downloads/files/hls/segment_053.ts' for writing
[hls @ 0x55e0ed2dfac0] Opening '/home/nian/Downloads/files/hls/stream.m3u8.tmp' for writing
frame= 1623 fps= 10 q=23.0 size=N/A time=00:02:42.30 bitrate=N/A dup=1 drop=24 speed=   1x elapsed=0:02:42.04    frame= 1628 fps= 10 q=23.0 size=N/A time=00:02:42.80 bitrate=N/A dup=1 drop=24 speed=   1x elapsed=0:02:42.54    frame= 1633 fps= 10 q=23.0 size=N/A time=00:02:43.30 bitrate=N/A dup=1 drop=24 speed=   1x elapsed=0:02:43.04    frame= 1638 fps= 10 q=23.0 size=N/A time=00:02:43.80 bitrate=N/A dup=1 drop=24 speed=   1x elapsed=0:02:43.54    frame= 1643 fps= 10 q=23.0 size=N/A time=00:02:44.30 bitrate=N/A dup=1 drop=24 speed=   1x elapsed=0:02:44.04    frame= 1649 fps= 10 q=23.0 size=N/A time=00:02:44.90 bitrate=N/A dup=1 drop=24 speed=   1x elapsed=0:02:44.54    [hls @ 0x55e0ed2dfac0] Opening '/home/nian/Downloads/files/hls/segment_054.ts' for writing
[hls @ 0x55e0ed2dfac0] Opening '/home/nian/Downloads/files/hls/stream.m3u8.tmp' for writing
frame= 1654 fps= 10 q=23.0 size=N/A time=00:02:45.40 bitrate=N/A dup=1 drop=24 speed=   1x elapsed=0:02:45.04    frame= 1659 fps= 10 q=23.0 size=N/A time=00:02:45.90 bitrate=N/A dup=1 drop=24 speed=   1x elapsed=0:02:45.54    frame= 1664 fps= 10 q=23.0 size=N/A time=00:02:46.40 bitrate=N/A dup=1 drop=24 speed=   1x elapsed=0:02:46.04    frame= 1669 fps= 10 q=23.0 size=N/A time=00:02:46.90 bitrate=N/A dup=1 drop=24 speed=   1x elapsed=0:02:46.54    frame= 1673 fps= 10 q=23.0 size=N/A time=00:02:47.30 bitrate=N/A dup=1 drop=25 speed=   1x elapsed=0:02:47.04    frame= 1678 fps= 10 q=23.0 size=N/A time=00:02:47.80 bitrate=N/A dup=1 drop=25 speed=   1x elapsed=0:02:47.54    [hls @ 0x55e0ed2dfac0] Opening '/home/nian/Downloads/files/hls/segment_055.ts' for writing
[hls @ 0x55e0ed2dfac0] Opening '/home/nian/Downloads/files/hls/stream.m3u8.tmp' for writing
frame= 1683 fps= 10 q=23.0 size=N/A time=00:02:48.30 bitrate=N/A dup=1 drop=25 speed=   1x elapsed=0:02:48.04    frame= 1688 fps= 10 q=23.0 size=N/A time=00:02:48.80 bitrate=N/A dup=1 drop=25 speed=   1x elapsed=0:02:48.54    frame= 1693 fps= 10 q=23.0 size=N/A time=00:02:49.30 bitrate=N/A dup=1 drop=25 speed=   1x elapsed=0:02:49.04    frame= 1698 fps= 10 q=23.0 size=N/A time=00:02:49.80 bitrate=N/A dup=1 drop=25 speed=   1x elapsed=0:02:49.54    frame= 1703 fps= 10 q=23.0 size=N/A time=00:02:50.30 bitrate=N/A dup=1 drop=25 speed=   1x elapsed=0:02:50.04    frame= 1708 fps= 10 q=23.0 size=N/A time=00:02:50.80 bitrate=N/A dup=1 drop=25 speed=   1x elapsed=0:02:50.54    [hls @ 0x55e0ed2dfac0] Opening '/home/nian/Downloads/files/hls/segment_056.ts' for writing
[hls @ 0x55e0ed2dfac0] Opening '/home/nian/Downloads/files/hls/stream.m3u8.tmp' for writing
frame= 1714 fps= 10 q=23.0 size=N/A time=00:02:51.40 bitrate=N/A dup=1 drop=25 speed=   1x elapsed=0:02:51.04    frame= 1719 fps= 10 q=23.0 size=N/A time=00:02:51.90 bitrate=N/A dup=1 drop=25 speed=   1x elapsed=0:02:51.54    frame= 1724 fps= 10 q=23.0 size=N/A time=00:02:52.40 bitrate=N/A dup=1 drop=25 speed=   1x elapsed=0:02:52.04    frame= 1729 fps= 10 q=23.0 size=N/A time=00:02:52.90 bitrate=N/A dup=1 drop=25 speed=   1x elapsed=0:02:52.54    frame= 1734 fps= 10 q=23.0 size=N/A time=00:02:53.40 bitrate=N/A dup=1 drop=25 speed=   1x elapsed=0:02:53.04    frame= 1738 fps= 10 q=23.0 size=N/A time=00:02:53.80 bitrate=N/A dup=1 drop=26 speed=   1x elapsed=0:02:53.54    [hls @ 0x55e0ed2dfac0] Opening '/home/nian/Downloads/files/hls/segment_057.ts' for writing
[hls @ 0x55e0ed2dfac0] Opening '/home/nian/Downloads/files/hls/stream.m3u8.tmp' for writing
frame= 1743 fps= 10 q=23.0 size=N/A time=00:02:54.30 bitrate=N/A dup=1 drop=26 speed=   1x elapsed=0:02:54.04    frame= 1748 fps= 10 q=23.0 size=N/A time=00:02:54.80 bitrate=N/A dup=1 drop=26 speed=   1x elapsed=0:02:54.54    frame= 1753 fps= 10 q=23.0 size=N/A time=00:02:55.30 bitrate=N/A dup=1 drop=26 speed=   1x elapsed=0:02:55.04    frame= 1758 fps= 10 q=23.0 size=N/A time=00:02:55.80 bitrate=N/A dup=1 drop=26 speed=   1x elapsed=0:02:55.54    frame= 1763 fps= 10 q=23.0 size=N/A time=00:02:56.30 bitrate=N/A dup=1 drop=26 speed=   1x elapsed=0:02:56.04    frame= 1768 fps= 10 q=23.0 size=N/A time=00:02:56.80 bitrate=N/A dup=1 drop=26 speed=   1x elapsed=0:02:56.54    [hls @ 0x55e0ed2dfac0] Opening '/home/nian/Downloads/files/hls/segment_058.ts' for writing
[hls @ 0x55e0ed2dfac0] Opening '/home/nian/Downloads/files/hls/stream.m3u8.tmp' for writing
frame= 1774 fps= 10 q=23.0 size=N/A time=00:02:57.40 bitrate=N/A dup=1 drop=26 speed=   1x elapsed=0:02:57.04    frame= 1779 fps= 10 q=23.0 size=N/A time=00:02:57.90 bitrate=N/A dup=1 drop=26 speed=   1x elapsed=0:02:57.54    frame= 1784 fps= 10 q=23.0 size=N/A time=00:02:58.40 bitrate=N/A dup=1 drop=26 speed=   1x elapsed=0:02:58.04    frame= 1789 fps= 10 q=23.0 size=N/A time=00:02:58.90 bitrate=N/A dup=1 drop=26 speed=   1x elapsed=0:02:58.54    frame= 1794 fps= 10 q=23.0 size=N/A time=00:02:59.40 bitrate=N/A dup=1 drop=26 speed=   1x elapsed=0:02:59.04    frame= 1798 fps= 10 q=23.0 size=N/A time=00:02:59.80 bitrate=N/A dup=1 drop=26 speed=   1x elapsed=0:02:59.54    [hls @ 0x55e0ed2dfac0] Opening '/home/nian/Downloads/files/hls/segment_059.ts' for writing
[hls @ 0x55e0ed2dfac0] Opening '/home/nian/Downloads/files/hls/stream.m3u8.tmp' for writing
frame= 1803 fps= 10 q=23.0 size=N/A time=00:03:00.30 bitrate=N/A dup=1 drop=27 speed=   1x elapsed=0:03:00.04    frame= 1808 fps= 10 q=23.0 size=N/A time=00:03:00.80 bitrate=N/A dup=1 drop=27 speed=   1x elapsed=0:03:00.54    frame= 1813 fps= 10 q=23.0 size=N/A time=00:03:01.30 bitrate=N/A dup=1 drop=27 speed=   1x elapsed=0:03:01.04    frame= 1818 fps= 10 q=23.0 size=N/A time=00:03:01.80 bitrate=N/A dup=1 drop=27 speed=   1x elapsed=0:03:01.54    frame= 1823 fps= 10 q=23.0 size=N/A time=00:03:02.30 bitrate=N/A dup=1 drop=27 speed=   1x elapsed=0:03:02.04    frame= 1828 fps= 10 q=23.0 size=N/A time=00:03:02.80 bitrate=N/A dup=1 drop=27 speed=   1x elapsed=0:03:02.54    [hls @ 0x55e0ed2dfac0] Opening '/home/nian/Downloads/files/hls/segment_060.ts' for writing
[hls @ 0x55e0ed2dfac0] Opening '/home/nian/Downloads/files/hls/stream.m3u8.tmp' for writing
frame= 1833 fps= 10 q=23.0 size=N/A time=00:03:03.30 bitrate=N/A dup=1 drop=27 speed=   1x elapsed=0:03:03.04    frame= 1839 fps= 10 q=23.0 size=N/A time=00:03:03.90 bitrate=N/A dup=1 drop=27 speed=   1x elapsed=0:03:03.54    frame= 1844 fps= 10 q=23.0 size=N/A time=00:03:04.40 bitrate=N/A dup=1 drop=27 speed=   1x elapsed=0:03:04.04    frame= 1849 fps= 10 q=23.0 size=N/A time=00:03:04.90 bitrate=N/A dup=1 drop=27 speed=   1x elapsed=0:03:04.54    frame= 1854 fps= 10 q=23.0 size=N/A time=00:03:05.40 bitrate=N/A dup=1 drop=27 speed=   1x elapsed=0:03:05.04    frame= 1859 fps= 10 q=23.0 size=N/A time=00:03:05.90 bitrate=N/A dup=1 drop=27 speed=   1x elapsed=0:03:05.54    [hls @ 0x55e0ed2dfac0] Opening '/home/nian/Downloads/files/hls/segment_061.ts' for writing
[hls @ 0x55e0ed2dfac0] Opening '/home/nian/Downloads/files/hls/stream.m3u8.tmp' for writing
frame= 1863 fps= 10 q=23.0 size=N/A time=00:03:06.30 bitrate=N/A dup=1 drop=28 speed=   1x elapsed=0:03:06.04    frame= 1868 fps= 10 q=23.0 size=N/A time=00:03:06.80 bitrate=N/A dup=1 drop=28 speed=   1x elapsed=0:03:06.54    frame= 1873 fps= 10 q=23.0 size=N/A time=00:03:07.30 bitrate=N/A dup=1 drop=28 speed=   1x elapsed=0:03:07.04    frame= 1878 fps= 10 q=23.0 size=N/A time=00:03:07.80 bitrate=N/A dup=1 drop=28 speed=   1x elapsed=0:03:07.54    frame= 1883 fps= 10 q=23.0 size=N/A time=00:03:08.30 bitrate=N/A dup=1 drop=28 speed=   1x elapsed=0:03:08.04    frame= 1888 fps= 10 q=23.0 size=N/A time=00:03:08.80 bitrate=N/A dup=1 drop=28 speed=   1x elapsed=0:03:08.54    [hls @ 0x55e0ed2dfac0] Opening '/home/nian/Downloads/files/hls/segment_062.ts' for writing
[hls @ 0x55e0ed2dfac0] Opening '/home/nian/Downloads/files/hls/stream.m3u8.tmp' for writing
frame= 1893 fps= 10 q=23.0 size=N/A time=00:03:09.30 bitrate=N/A dup=1 drop=28 speed=   1x elapsed=0:03:09.04    frame= 1899 fps= 10 q=23.0 size=N/A time=00:03:09.90 bitrate=N/A dup=1 drop=28 speed=   1x elapsed=0:03:09.54    frame= 1904 fps= 10 q=23.0 size=N/A time=00:03:10.40 bitrate=N/A dup=1 drop=28 speed=   1x elapsed=0:03:10.04    frame= 1909 fps= 10 q=23.0 size=N/A time=00:03:10.90 bitrate=N/A dup=1 drop=28 speed=   1x elapsed=0:03:10.54    frame= 1914 fps= 10 q=23.0 size=N/A time=00:03:11.40 bitrate=N/A dup=1 drop=28 speed=   1x elapsed=0:03:11.04    frame= 1919 fps= 10 q=23.0 size=N/A time=00:03:11.90 bitrate=N/A dup=1 drop=28 speed=   1x elapsed=0:03:11.54    [hls @ 0x55e0ed2dfac0] Opening '/home/nian/Downloads/files/hls/segment_063.ts' for writing
[hls @ 0x55e0ed2dfac0] Opening '/home/nian/Downloads/files/hls/stream.m3u8.tmp' for writing
frame= 1924 fps= 10 q=23.0 size=N/A time=00:03:12.40 bitrate=N/A dup=1 drop=28 speed=   1x elapsed=0:03:12.04    frame= 1928 fps= 10 q=23.0 size=N/A time=00:03:12.80 bitrate=N/A dup=1 drop=29 speed=   1x elapsed=0:03:12.54    frame= 1933 fps= 10 q=23.0 size=N/A time=00:03:13.30 bitrate=N/A dup=1 drop=29 speed=   1x elapsed=0:03:13.04    frame= 1938 fps= 10 q=23.0 size=N/A time=00:03:13.80 bitrate=N/A dup=1 drop=29 speed=   1x elapsed=0:03:13.54    frame= 1943 fps= 10 q=23.0 size=N/A time=00:03:14.30 bitrate=N/A dup=1 drop=29 speed=   1x elapsed=0:03:14.04    frame= 1948 fps= 10 q=23.0 size=N/A time=00:03:14.80 bitrate=N/A dup=1 drop=29 speed=   1x elapsed=0:03:14.54    [hls @ 0x55e0ed2dfac0] Opening '/home/nian/Downloads/files/hls/segment_064.ts' for writing
[hls @ 0x55e0ed2dfac0] Opening '/home/nian/Downloads/files/hls/stream.m3u8.tmp' for writing
frame= 1953 fps= 10 q=23.0 size=N/A time=00:03:15.30 bitrate=N/A dup=1 drop=29 speed=   1x elapsed=0:03:15.04    frame= 1958 fps= 10 q=23.0 size=N/A time=00:03:15.80 bitrate=N/A dup=1 drop=29 speed=   1x elapsed=0:03:15.54    frame= 1964 fps= 10 q=23.0 size=N/A time=00:03:16.40 bitrate=N/A dup=1 drop=29 speed=   1x elapsed=0:03:16.04    frame= 1969 fps= 10 q=23.0 size=N/A time=00:03:16.90 bitrate=N/A dup=1 drop=29 speed=   1x elapsed=0:03:16.55    frame= 1974 fps= 10 q=23.0 size=N/A time=00:03:17.40 bitrate=N/A dup=1 drop=29 speed=   1x elapsed=0:03:17.05    frame= 1979 fps= 10 q=23.0 size=N/A time=00:03:17.90 bitrate=N/A dup=1 drop=29 speed=   1x elapsed=0:03:17.55    [hls @ 0x55e0ed2dfac0] Opening '/home/nian/Downloads/files/hls/segment_065.ts' for writing
[hls @ 0x55e0ed2dfac0] Opening '/home/nian/Downloads/files/hls/stream.m3u8.tmp' for writing
frame= 1984 fps= 10 q=23.0 size=N/A time=00:03:18.40 bitrate=N/A dup=1 drop=29 speed=   1x elapsed=0:03:18.05    frame= 1989 fps= 10 q=23.0 size=N/A time=00:03:18.90 bitrate=N/A dup=1 drop=29 speed=   1x elapsed=0:03:18.55    frame= 1993 fps= 10 q=23.0 size=N/A time=00:03:19.30 bitrate=N/A dup=1 drop=30 speed=   1x elapsed=0:03:19.05    frame= 1998 fps= 10 q=23.0 size=N/A time=00:03:19.80 bitrate=N/A dup=1 drop=30 speed=   1x elapsed=0:03:19.55    frame= 2003 fps= 10 q=23.0 size=N/A time=00:03:20.30 bitrate=N/A dup=1 drop=30 speed=   1x elapsed=0:03:20.05    frame= 2008 fps= 10 q=23.0 size=N/A time=00:03:20.80 bitrate=N/A dup=1 drop=30 speed=   1x elapsed=0:03:20.55    [hls @ 0x55e0ed2dfac0] Opening '/home/nian/Downloads/files/hls/segment_066.ts' for writing
[hls @ 0x55e0ed2dfac0] Opening '/home/nian/Downloads/files/hls/stream.m3u8.tmp' for writing
frame= 2013 fps= 10 q=23.0 size=N/A time=00:03:21.30 bitrate=N/A dup=1 drop=30 speed=   1x elapsed=0:03:21.05    frame= 2018 fps= 10 q=23.0 size=N/A time=00:03:21.80 bitrate=N/A dup=1 drop=30 speed=   1x elapsed=0:03:21.55    frame= 2023 fps= 10 q=23.0 size=N/A time=00:03:22.30 bitrate=N/A dup=1 drop=30 speed=   1x elapsed=0:03:22.05    frame= 2029 fps= 10 q=23.0 size=N/A time=00:03:22.90 bitrate=N/A dup=1 drop=30 speed=   1x elapsed=0:03:22.55    frame= 2034 fps= 10 q=23.0 size=N/A time=00:03:23.40 bitrate=N/A dup=1 drop=30 speed=   1x elapsed=0:03:23.05    frame= 2039 fps= 10 q=23.0 size=N/A time=00:03:23.90 bitrate=N/A dup=1 drop=30 speed=   1x elapsed=0:03:23.55    [hls @ 0x55e0ed2dfac0] Opening '/home/nian/Downloads/files/hls/segment_067.ts' for writing
[hls @ 0x55e0ed2dfac0] Opening '/home/nian/Downloads/files/hls/stream.m3u8.tmp' for writing
frame= 2044 fps= 10 q=23.0 size=N/A time=00:03:24.40 bitrate=N/A dup=1 drop=30 speed=   1x elapsed=0:03:24.05    frame= 2049 fps= 10 q=23.0 size=N/A time=00:03:24.90 bitrate=N/A dup=1 drop=30 speed=   1x elapsed=0:03:24.55    frame= 2054 fps= 10 q=23.0 size=N/A time=00:03:25.40 bitrate=N/A dup=1 drop=30 speed=   1x elapsed=0:03:25.05    frame= 2058 fps= 10 q=23.0 size=N/A time=00:03:25.80 bitrate=N/A dup=1 drop=31 speed=   1x elapsed=0:03:25.55    frame= 2063 fps= 10 q=23.0 size=N/A time=00:03:26.30 bitrate=N/A dup=1 drop=31 speed=   1x elapsed=0:03:26.05    frame= 2068 fps= 10 q=23.0 size=N/A time=00:03:26.80 bitrate=N/A dup=1 drop=31 speed=   1x elapsed=0:03:26.55    [hls @ 0x55e0ed2dfac0] Opening '/home/nian/Downloads/files/hls/segment_068.ts' for writing
[hls @ 0x55e0ed2dfac0] Opening '/home/nian/Downloads/files/hls/stream.m3u8.tmp' for writing
frame= 2073 fps= 10 q=23.0 size=N/A time=00:03:27.30 bitrate=N/A dup=1 drop=31 speed=   1x elapsed=0:03:27.05    frame= 2078 fps= 10 q=23.0 size=N/A time=00:03:27.80 bitrate=N/A dup=1 drop=31 speed=   1x elapsed=0:03:27.55    frame= 2083 fps= 10 q=23.0 size=N/A time=00:03:28.30 bitrate=N/A dup=1 drop=31 speed=   1x elapsed=0:03:28.05    frame= 2089 fps= 10 q=23.0 size=N/A time=00:03:28.90 bitrate=N/A dup=1 drop=31 speed=   1x elapsed=0:03:28.55    frame= 2094 fps= 10 q=23.0 size=N/A time=00:03:29.40 bitrate=N/A dup=1 drop=31 speed=   1x elapsed=0:03:29.05    frame= 2099 fps= 10 q=23.0 size=N/A time=00:03:29.90 bitrate=N/A dup=1 drop=31 speed=   1x elapsed=0:03:29.55    [hls @ 0x55e0ed2dfac0] Opening '/home/nian/Downloads/files/hls/segment_069.ts' for writing
[hls @ 0x55e0ed2dfac0] Opening '/home/nian/Downloads/files/hls/stream.m3u8.tmp' for writing
frame= 2104 fps= 10 q=23.0 size=N/A time=00:03:30.40 bitrate=N/A dup=1 drop=31 speed=   1x elapsed=0:03:30.05    frame= 2109 fps= 10 q=23.0 size=N/A time=00:03:30.90 bitrate=N/A dup=1 drop=31 speed=   1x elapsed=0:03:30.55    frame= 2114 fps= 10 q=23.0 size=N/A time=00:03:31.40 bitrate=N/A dup=1 drop=31 speed=   1x elapsed=0:03:31.05    frame= 2118 fps= 10 q=23.0 size=N/A time=00:03:31.80 bitrate=N/A dup=1 drop=31 speed=   1x elapsed=0:03:31.55    frame= 2123 fps= 10 q=23.0 size=N/A time=00:03:32.30 bitrate=N/A dup=1 drop=32 speed=   1x elapsed=0:03:32.05    frame= 2128 fps= 10 q=23.0 size=N/A time=00:03:32.80 bitrate=N/A dup=1 drop=32 speed=   1x elapsed=0:03:32.55    [hls @ 0x55e0ed2dfac0] Opening '/home/nian/Downloads/files/hls/segment_070.ts' for writing
[hls @ 0x55e0ed2dfac0] Opening '/home/nian/Downloads/files/hls/stream.m3u8.tmp' for writing
frame= 2133 fps= 10 q=23.0 size=N/A time=00:03:33.30 bitrate=N/A dup=1 drop=32 speed=   1x elapsed=0:03:33.05    frame= 2138 fps= 10 q=23.0 size=N/A time=00:03:33.80 bitrate=N/A dup=1 drop=32 speed=   1x elapsed=0:03:33.55    frame= 2143 fps= 10 q=23.0 size=N/A time=00:03:34.30 bitrate=N/A dup=1 drop=32 speed=   1x elapsed=0:03:34.05    frame= 2148 fps= 10 q=23.0 size=N/A time=00:03:34.80 bitrate=N/A dup=1 drop=32 speed=   1x elapsed=0:03:34.55    frame= 2154 fps= 10 q=23.0 size=N/A time=00:03:35.40 bitrate=N/A dup=1 drop=32 speed=   1x elapsed=0:03:35.05    frame= 2159 fps= 10 q=23.0 size=N/A time=00:03:35.90 bitrate=N/A dup=1 drop=32 speed=   1x elapsed=0:03:35.55    [hls @ 0x55e0ed2dfac0] Opening '/home/nian/Downloads/files/hls/segment_071.ts' for writing
[hls @ 0x55e0ed2dfac0] Opening '/home/nian/Downloads/files/hls/stream.m3u8.tmp' for writing
frame= 2164 fps= 10 q=23.0 size=N/A time=00:03:36.40 bitrate=N/A dup=1 drop=32 speed=   1x elapsed=0:03:36.05    frame= 2169 fps= 10 q=23.0 size=N/A time=00:03:36.90 bitrate=N/A dup=1 drop=32 speed=   1x elapsed=0:03:36.55    frame= 2174 fps= 10 q=23.0 size=N/A time=00:03:37.40 bitrate=N/A dup=1 drop=32 speed=   1x elapsed=0:03:37.05    frame= 2179 fps= 10 q=23.0 size=N/A time=00:03:37.90 bitrate=N/A dup=1 drop=32 speed=   1x elapsed=0:03:37.55    frame= 2183 fps= 10 q=23.0 size=N/A time=00:03:38.30 bitrate=N/A dup=1 drop=33 speed=   1x elapsed=0:03:38.05    frame= 2188 fps= 10 q=23.0 size=N/A time=00:03:38.80 bitrate=N/A dup=1 drop=33 speed=   1x elapsed=0:03:38.55    [hls @ 0x55e0ed2dfac0] Opening '/home/nian/Downloads/files/hls/segment_072.ts' for writing
[hls @ 0x55e0ed2dfac0] Opening '/home/nian/Downloads/files/hls/stream.m3u8.tmp' for writing
frame= 2193 fps= 10 q=23.0 size=N/A time=00:03:39.30 bitrate=N/A dup=1 drop=33 speed=   1x elapsed=0:03:39.05    frame= 2198 fps= 10 q=23.0 size=N/A time=00:03:39.80 bitrate=N/A dup=1 drop=33 speed=   1x elapsed=0:03:39.55    frame= 2203 fps= 10 q=23.0 size=N/A time=00:03:40.30 bitrate=N/A dup=1 drop=33 speed=   1x elapsed=0:03:40.05    frame= 2209 fps= 10 q=23.0 size=N/A time=00:03:40.90 bitrate=N/A dup=1 drop=33 speed=   1x elapsed=0:03:40.55    frame= 2214 fps= 10 q=23.0 size=N/A time=00:03:41.40 bitrate=N/A dup=1 drop=33 speed=   1x elapsed=0:03:41.05    frame= 2219 fps= 10 q=23.0 size=N/A time=00:03:41.90 bitrate=N/A dup=1 drop=33 speed=   1x elapsed=0:03:41.55    [hls @ 0x55e0ed2dfac0] Opening '/home/nian/Downloads/files/hls/segment_073.ts' for writing
[hls @ 0x55e0ed2dfac0] Opening '/home/nian/Downloads/files/hls/stream.m3u8.tmp' for writing
frame= 2224 fps= 10 q=23.0 size=N/A time=00:03:42.40 bitrate=N/A dup=1 drop=33 speed=   1x elapsed=0:03:42.05    Received > 3 system signals, hard exiting
